<svg width="108" height="31" viewBox="0 0 108 31" fill="none" xmlns="http://www.w3.org/2000/svg">
<g filter="url(#filter0_d)">
<path d="M4.90469 18V0.9375H10.4828C12.3344 0.9375 13.725 1.32031 14.6547 2.08594C15.5922 2.85156 16.0609 3.98438 16.0609 5.48438C16.0609 6.28125 15.8344 6.98828 15.3813 7.60547C14.9281 8.21484 14.3109 8.6875 13.5297 9.02344C14.4516 9.28125 15.1781 9.77344 15.7094 10.5C16.2484 11.2188 16.518 12.0781 16.518 13.0781C16.518 14.6094 16.0219 15.8125 15.0297 16.6875C14.0375 17.5625 12.6352 18 10.8227 18H4.90469ZM7.15469 10.0195V16.1602H10.8695C11.9164 16.1602 12.7406 15.8906 13.3422 15.3516C13.9516 14.8047 14.2563 14.0547 14.2563 13.1016C14.2563 11.0469 13.1391 10.0195 10.9047 10.0195H7.15469ZM7.15469 8.21484H10.5531C11.5375 8.21484 12.3227 7.96875 12.9086 7.47656C13.5023 6.98438 13.7992 6.31641 13.7992 5.47266C13.7992 4.53516 13.5258 3.85547 12.9789 3.43359C12.432 3.00391 11.6 2.78906 10.4828 2.78906H7.15469V8.21484ZM27.3333 8.16C27.3813 7.968 27.3573 7.824 27.2613 7.728C27.1653 7.616 27.0453 7.56 26.9013 7.56C26.7733 7.56 26.6533 7.6 26.5413 7.68L24.3573 9.168L23.3973 7.752L25.5333 6.312C26.0773 5.944 26.6293 5.76 27.1893 5.76C27.6853 5.76 28.1173 5.904 28.4853 6.192C28.8533 6.464 29.0613 6.912 29.1093 7.536H29.3973C29.8613 6.88 30.3813 6.424 30.9573 6.168C31.5333 5.896 32.1333 5.76 32.7573 5.76C33.9093 5.76 34.8133 6.096 35.4693 6.768C36.1253 7.424 36.4533 8.296 36.4533 9.384C36.4533 9.8 36.4053 10.224 36.3093 10.656L34.2693 10.8C34.3493 10.4 34.3893 10.064 34.3893 9.792C34.3893 9.024 34.1733 8.456 33.7413 8.088C33.3253 7.72 32.7813 7.536 32.1093 7.536C31.6293 7.536 31.1893 7.632 30.7893 7.824C30.4053 8 30.0693 8.248 29.7813 8.568C29.4933 8.872 29.2453 9.232 29.0373 9.648C28.8453 10.064 28.7013 10.496 28.6053 10.944L27.4773 16.272H30.3093V18H22.6773V16.272H25.6053L27.3333 8.16ZM46.1688 18H44.0008V5.32031H46.1688V18ZM43.825 1.95703C43.825 1.60547 43.9305 1.30859 44.1414 1.06641C44.3602 0.824219 44.6805 0.703125 45.1023 0.703125C45.5242 0.703125 45.8445 0.824219 46.0633 1.06641C46.282 1.30859 46.3914 1.60547 46.3914 1.95703C46.3914 2.30859 46.282 2.60156 46.0633 2.83594C45.8445 3.07031 45.5242 3.1875 45.1023 3.1875C44.6805 3.1875 44.3602 3.07031 44.1414 2.83594C43.9305 2.60156 43.825 2.30859 43.825 1.95703ZM61.2326 16.128C60.7206 16.976 60.1126 17.56 59.4086 17.88C58.7046 18.184 57.9606 18.336 57.1766 18.336C56.5366 18.336 55.9526 18.224 55.4246 18C54.8966 17.776 54.4486 17.464 54.0806 17.064C53.7126 16.648 53.4246 16.152 53.2166 15.576C53.0086 14.984 52.9046 14.336 52.9046 13.632C52.9046 12.64 53.0566 11.672 53.3606 10.728C53.6646 9.784 54.1046 8.944 54.6806 8.208C55.2566 7.472 55.9606 6.88 56.7926 6.432C57.6406 5.984 58.6086 5.76 59.6966 5.76C60.5446 5.76 61.2486 5.936 61.8086 6.288C62.3846 6.64 62.7766 7.2 62.9846 7.968H63.2726L64.7606 0.863999H66.6326L63.4166 15.984C63.3686 16.272 63.4726 16.416 63.7286 16.416C63.8246 16.416 63.9286 16.376 64.0406 16.296L64.9046 15.672L65.9366 17.088L64.8566 17.904C64.6806 18.032 64.4646 18.136 64.2086 18.216C63.9686 18.296 63.6966 18.336 63.3926 18.336C63.1526 18.336 62.9206 18.304 62.6966 18.24C62.4726 18.176 62.2646 18.08 62.0726 17.952C61.8966 17.808 61.7526 17.632 61.6406 17.424C61.5286 17.2 61.4726 16.928 61.4726 16.608C61.4726 16.528 61.4726 16.448 61.4726 16.368C61.4886 16.288 61.5046 16.208 61.5206 16.128H61.2326ZM57.7526 16.56C58.3926 16.56 59.0006 16.416 59.5766 16.128C60.1686 15.824 60.6806 15.416 61.1126 14.904C61.5606 14.392 61.9126 13.792 62.1686 13.104C62.4246 12.4 62.5526 11.64 62.5526 10.824C62.5526 9.832 62.3046 9.04 61.8086 8.448C61.3126 7.84 60.5926 7.536 59.6486 7.536C58.8966 7.536 58.2246 7.704 57.6326 8.04C57.0566 8.36 56.5606 8.792 56.1446 9.336C55.7286 9.864 55.4086 10.48 55.1846 11.184C54.9766 11.888 54.8726 12.616 54.8726 13.368C54.8726 15.496 55.8326 16.56 57.7526 16.56ZM73.4289 11.5547C73.4289 9.57812 73.8859 8.00781 74.8 6.84375C75.7141 5.67188 76.925 5.08594 78.4328 5.08594C79.9797 5.08594 81.1867 5.63281 82.0539 6.72656L82.1594 5.32031H84.1398V17.6953C84.1398 19.3359 83.6516 20.6289 82.675 21.5742C81.7063 22.5195 80.4016 22.9922 78.7609 22.9922C77.8469 22.9922 76.9523 22.7969 76.0773 22.4062C75.2023 22.0156 74.5344 21.4805 74.0734 20.8008L75.1984 19.5C76.1281 20.6484 77.2648 21.2227 78.6086 21.2227C79.6633 21.2227 80.4836 20.9258 81.0695 20.332C81.6633 19.7383 81.9602 18.9023 81.9602 17.8242V16.7344C81.093 17.7344 79.9094 18.2344 78.4094 18.2344C76.925 18.2344 75.7219 17.6367 74.8 16.4414C73.8859 15.2461 73.4289 13.6172 73.4289 11.5547ZM75.6086 11.8008C75.6086 13.2305 75.9016 14.3555 76.4875 15.1758C77.0734 15.9883 77.8938 16.3945 78.9484 16.3945C80.3156 16.3945 81.3195 15.7734 81.9602 14.5312V8.74219C81.2961 7.53125 80.3 6.92578 78.9719 6.92578C77.9172 6.92578 77.093 7.33594 76.4992 8.15625C75.9055 8.97656 75.6086 10.1914 75.6086 11.8008ZM93.2685 12.624C93.2365 12.752 93.2125 12.896 93.1965 13.056C93.1805 13.216 93.1725 13.384 93.1725 13.56C93.1725 14.44 93.4285 15.168 93.9405 15.744C94.4525 16.304 95.2685 16.584 96.3885 16.584C96.9485 16.584 97.4445 16.52 97.8765 16.392C98.3245 16.264 98.7085 16.088 99.0285 15.864C99.3485 15.624 99.6205 15.36 99.8445 15.072C100.084 14.768 100.284 14.448 100.444 14.112L101.98 14.976C101.756 15.44 101.476 15.88 101.14 16.296C100.804 16.696 100.404 17.048 99.9405 17.352C99.4765 17.656 98.9405 17.896 98.3325 18.072C97.7245 18.248 97.0285 18.336 96.2445 18.336C95.5245 18.336 94.8605 18.224 94.2525 18C93.6605 17.792 93.1485 17.488 92.7165 17.088C92.2845 16.672 91.9485 16.168 91.7085 15.576C91.4685 14.984 91.3485 14.312 91.3485 13.56C91.3485 12.552 91.5085 11.584 91.8285 10.656C92.1485 9.712 92.6125 8.88 93.2205 8.16C93.8285 7.44 94.5805 6.864 95.4765 6.432C96.3725 5.984 97.3885 5.76 98.5245 5.76C99.3245 5.76 100.02 5.888 100.612 6.144C101.204 6.384 101.692 6.72 102.076 7.152C102.46 7.568 102.748 8.048 102.94 8.592C103.132 9.12 103.228 9.672 103.228 10.248C103.228 10.68 103.18 11.096 103.084 11.496L102.82 12.624H93.2685ZM98.2845 7.536C97.7245 7.536 97.1965 7.624 96.7005 7.8C96.2205 7.96 95.7805 8.192 95.3805 8.496C94.9805 8.8 94.6365 9.16 94.3485 9.576C94.0605 9.976 93.8365 10.416 93.6765 10.896H101.308C101.356 10.64 101.38 10.4 101.38 10.176C101.38 9.312 101.084 8.656 100.492 8.208C99.9005 7.76 99.1645 7.536 98.2845 7.536Z" fill="#E7DFDD"/>
</g>
<defs>
<filter id="filter0_d" x="0.904663" y="0.703125" width="106.324" height="30.2891" filterUnits="userSpaceOnUse" color-interpolation-filters="sRGB">
<feFlood flood-opacity="0" result="BackgroundImageFix"/>
<feColorMatrix in="SourceAlpha" type="matrix" values="0 0 0 0 0 0 0 0 0 0 0 0 0 0 0 0 0 0 127 0"/>
<feOffset dy="4"/>
<feGaussianBlur stdDeviation="2"/>
<feColorMatrix type="matrix" values="0 0 0 0 0 0 0 0 0 0 0 0 0 0 0 0 0 0 0.25 0"/>
<feBlend mode="normal" in2="BackgroundImageFix" result="effect1_dropShadow"/>
<feBlend mode="normal" in="SourceGraphic" in2="effect1_dropShadow" result="shape"/>
</filter>
</defs>
</svg>
